<svg height="11.786" viewBox="0 0 16.5 11.786" width="16.5" xmlns="http://www.w3.org/2000/svg">
    <g data-name="Group 441" id="Group_441" transform="translate(-36 -774)">
        <g data-name="close-envelope (1)" id="close-envelope_1_" transform="translate(36 772)">
            <g data-name="Group 432" id="Group_432" transform="translate(0 2)">
                <path
                    d="M8.194,9.271,6.152,7.484l-5.836,5a1.2,1.2,0,0,0,.814.319H15.257a1.186,1.186,0,0,0,.811-.319l-5.833-5Z"
                    data-name="Path 1007" fill="#ffa51d" id="Path_1007"
                    transform="translate(0.056 -1.021)" />
                <path
                    d="M16.071,2.319A1.187,1.187,0,0,0,15.256,2H1.13a1.182,1.182,0,0,0-.812.322l7.875,6.75Z"
                    data-name="Path 1008" fill="#ffa51d" id="Path_1008"
                    transform="translate(0.057 -2)" />
                <path d="M0,2.878V12.67l5.7-4.84Z" data-name="Path 1009" fill="#ffa51d"
                    id="Path_1009" transform="translate(0 -1.843)" />
                <path d="M9.167,7.83l5.7,4.84v-9.8Z" data-name="Path 1010" fill="#ffa51d"
                    id="Path_1010" transform="translate(1.637 -1.844)" />
            </g>
        </g>
    </g>
</svg>
